M48
; DRILL file {KiCad 5.1.5-52549c5~84~ubuntu18.04.1} date Thu 05 Mar 2020 05:39:04 PM CST
; FORMAT={-:-/ absolute / inch / decimal}
; #@! TF.CreationDate,2020-03-05T17:39:04-06:00
; #@! TF.GenerationSoftware,Kicad,Pcbnew,5.1.5-52549c5~84~ubuntu18.04.1
; #@! TF.FileFunction,Plated,1,2,PTH
FMAT,2
INCH
T1C0.0179
T2C0.0201
T3C0.0226
T4C0.0253
T5C0.0285
T6C0.0320
T7C0.0359
T8C0.0403
T9C0.0453
T10C0.0508
T11C0.0571
T12C0.0641
T13C0.0720
T14C0.0808
T15C0.0907
T16C0.1020
T17C0.1140
T18C0.1280
T19C0.1440
T20C0.1620
%
G90
G05
T1
X8.0Y-2.965
T2
X8.0522Y-2.965
T3
X8.1064Y-2.965
T4
X8.1631Y-2.965
T5
X8.2227Y-2.965
T6
X8.2859Y-2.9657
T7
X8.3531Y-2.9678
T8
X8.4243Y-2.9697
T9
X8.5Y-2.9722
T10
X8.5807Y-2.9747
T11
X8.6673Y-2.9783
T12
X8.761Y-2.9817
T13
X8.8622Y-2.9857
T14
X8.9719Y-2.9903
T15
X9.0911Y-2.9952
T16
X9.2208Y-3.0008
T17
X9.3624Y-3.0072
T18
X9.5176Y-3.0143
T19
X9.6878Y-3.0223
T20
X9.875Y-3.0312
T0
M30
